<svg width="58" height="16" viewBox="0 0 58 16" fill="none" xmlns="http://www.w3.org/2000/svg">
<path d="M0 15.1614V2.22897C0 1.94943 0.051395 1.69195 0.154185 1.45655C0.271659 1.22115 0.418502 1.02253 0.594713 0.860689C0.785609 0.69885 0.991188 0.573793 1.21145 0.485518C1.4464 0.382529 1.68135 0.331034 1.9163 0.331034H3.63436C3.79588 0.331034 3.9207 0.382529 4.00881 0.485518C4.1116 0.588506 4.16299 0.720919 4.16299 0.882759V11.5862C4.16299 11.7039 4.22173 11.851 4.3392 12.0276C4.45668 12.1894 4.62555 12.2703 4.84581 12.2703H10.7489C10.9104 12.2703 11.0426 12.3218 11.1454 12.4248C11.2628 12.5131 11.3216 12.6455 11.3216 12.8221V15.1614C11.3216 15.3379 11.2628 15.4777 11.1454 15.5807C11.0426 15.669 10.9104 15.7131 10.7489 15.7131H0.55066C0.418502 15.7131 0.293685 15.6543 0.176211 15.5366C0.0587371 15.4188 0 15.2938 0 15.1614Z" fill="#7000FF"/>
<path d="M19.4648 16C17.3796 16 15.735 15.4924 14.5309 14.4772C13.3268 13.4621 12.688 11.9687 12.6146 9.99724C12.5999 9.58529 12.5926 8.95264 12.5926 8.09931C12.5926 7.24598 12.5999 6.60598 12.6146 6.17931C12.6733 4.23724 13.3121 2.74391 14.5309 1.69931C15.7644 0.64 17.409 0.110345 19.4648 0.110345C21.5059 0.110345 23.1359 0.64 24.3547 1.69931C25.5881 2.74391 26.2343 4.23724 26.293 6.17931C26.3224 7.03264 26.337 7.67264 26.337 8.09931C26.337 8.54069 26.3224 9.17333 26.293 9.99724C26.2196 11.9687 25.5808 13.4621 24.3767 14.4772C23.1873 15.4924 21.55 16 19.4648 16ZM19.4648 12.6897C20.2284 12.6897 20.8378 12.4616 21.293 12.0055C21.7482 11.5347 21.9905 10.8211 22.0199 9.86483C22.0492 9.01149 22.0639 8.40092 22.0639 8.0331C22.0639 7.66529 22.0492 7.06943 22.0199 6.24552C21.9905 5.2892 21.7482 4.58299 21.293 4.1269C20.8378 3.65609 20.2284 3.42069 19.4648 3.42069C18.6865 3.42069 18.0698 3.65609 17.6146 4.1269C17.1594 4.58299 16.9171 5.2892 16.8877 6.24552C16.873 6.65747 16.8657 7.25333 16.8657 8.0331C16.8657 8.82759 16.873 9.43816 16.8877 9.86483C16.9171 10.8211 17.1594 11.5347 17.6146 12.0055C18.0698 12.4616 18.6865 12.6897 19.4648 12.6897Z" fill="#7000FF"/>
<path d="M28.4036 9.84276C28.3889 9.63678 28.3815 9.37195 28.3815 9.04828C28.3815 8.70988 28.3815 8.30529 28.3815 7.83448C28.3815 7.37839 28.3815 6.98115 28.3815 6.64276C28.3815 6.30437 28.3889 6.03218 28.4036 5.82621C28.4329 4.81103 28.6312 3.93563 28.9983 3.2C29.3801 2.46437 29.8793 1.86115 30.4961 1.39035C31.1128 0.919541 31.8323 0.573793 32.6547 0.353103C33.477 0.117701 34.358 0 35.2978 0C35.8411 0 36.3918 0.0441378 36.9498 0.132413C37.5225 0.22069 38.0732 0.36046 38.6018 0.551724C39.1451 0.742988 39.6517 0.993103 40.1216 1.30207C40.5915 1.61103 41.0027 1.98621 41.3551 2.42759C41.9131 3.13379 42.1994 3.86207 42.2141 4.61241C42.2141 4.74483 42.1627 4.86253 42.0599 4.96552C41.9718 5.05379 41.8617 5.09793 41.7295 5.09793H38.3375C38.1759 5.09793 38.0658 5.06851 38.0071 5.00965C37.9043 4.9508 37.8235 4.87724 37.7648 4.78897C37.6767 4.58299 37.5592 4.39908 37.4124 4.23724C37.2802 4.06069 37.1187 3.89149 36.9278 3.72966C36.5166 3.4354 35.9733 3.28828 35.2978 3.28828C33.6091 3.28828 32.7281 4.17103 32.6547 5.93655C32.64 6.14253 32.6326 6.4 32.6326 6.70897C32.6326 7.01793 32.6326 7.38575 32.6326 7.81241C32.6326 8.23908 32.6326 8.61425 32.6326 8.93793C32.6326 9.26161 32.64 9.52644 32.6547 9.73241C32.684 10.6593 32.919 11.3582 33.3595 11.829C33.8 12.2851 34.571 12.5131 35.6723 12.5131C36.0247 12.5131 36.311 12.5057 36.5313 12.491C36.7516 12.4616 36.9351 12.4248 37.082 12.3807C37.2435 12.3218 37.3757 12.2556 37.4784 12.1821C37.5959 12.0938 37.7207 11.9982 37.8529 11.8952C38.1759 11.6009 38.3889 11.2405 38.4917 10.8138C38.5504 10.5784 38.6385 10.3798 38.756 10.2179C38.8881 10.0561 39.0276 9.93103 39.1745 9.84276C39.336 9.73977 39.4902 9.66621 39.637 9.62207C39.7986 9.57793 39.9307 9.55586 40.0335 9.55586H36.1348C35.9586 9.55586 35.8191 9.50437 35.7163 9.40138C35.6282 9.28368 35.5842 9.14391 35.5842 8.98207V8.6069C35.5842 8.38621 35.6209 8.16552 35.6943 7.94483C35.7824 7.70942 35.9072 7.50345 36.0688 7.3269C36.2303 7.15034 36.4285 7.00322 36.6635 6.88552C36.8984 6.76782 37.1701 6.70897 37.4784 6.70897H40.7384C41.2817 6.70897 41.6708 6.85609 41.9058 7.15034C42.1554 7.42988 42.2802 7.81241 42.2802 8.29793V9.82069C42.2802 10.8653 42.0893 11.7701 41.7075 12.5352C41.3257 13.2855 40.8118 13.9034 40.1657 14.389C39.5342 14.8745 38.7927 15.2349 37.941 15.4703C37.104 15.7057 36.2229 15.8234 35.2978 15.8234C34.3287 15.8234 33.4256 15.7057 32.5886 15.4703C31.7663 15.2349 31.0467 14.8745 30.43 14.389C29.8279 13.9034 29.3434 13.2855 28.9762 12.5352C28.6238 11.7701 28.4329 10.8726 28.4036 9.84276Z" fill="#7000FF"/>
<path d="M51.1278 16C49.0426 16 47.398 15.4924 46.1938 14.4772C44.9897 13.4621 44.351 11.9687 44.2775 9.99724C44.2629 9.58529 44.2555 8.95264 44.2555 8.09931C44.2555 7.24598 44.2629 6.60598 44.2775 6.17931C44.3363 4.23724 44.9751 2.74391 46.1938 1.69931C47.4273 0.64 49.072 0.110345 51.1278 0.110345C53.1689 0.110345 54.7988 0.64 56.0176 1.69931C57.2511 2.74391 57.8972 4.23724 57.9559 6.17931C57.9853 7.03264 58 7.67264 58 8.09931C58 8.54069 57.9853 9.17333 57.9559 9.99724C57.8825 11.9687 57.2438 13.4621 56.0396 14.4772C54.8502 15.4924 53.2129 16 51.1278 16ZM51.1278 12.6897C51.8913 12.6897 52.5007 12.4616 52.9559 12.0055C53.4112 11.5347 53.6535 10.8211 53.6828 9.86483C53.7122 9.01149 53.7269 8.40092 53.7269 8.0331C53.7269 7.66529 53.7122 7.06943 53.6828 6.24552C53.6535 5.2892 53.4112 4.58299 52.9559 4.1269C52.5007 3.65609 51.8913 3.42069 51.1278 3.42069C50.3495 3.42069 49.7328 3.65609 49.2775 4.1269C48.8223 4.58299 48.58 5.2892 48.5507 6.24552C48.536 6.65747 48.5286 7.25333 48.5286 8.0331C48.5286 8.82759 48.536 9.43816 48.5507 9.86483C48.58 10.8211 48.8223 11.5347 49.2775 12.0055C49.7328 12.4616 50.3495 12.6897 51.1278 12.6897Z" fill="#7000FF"/>
</svg>
